<?xml version="1.0" encoding="iso-8859-1"?>
<!-- Generator: Adobe Illustrator 16.0.0, SVG Export Plug-In . SVG Version: 6.00 Build 0)  -->
<!DOCTYPE svg PUBLIC "-//W3C//DTD SVG 1.1//EN" "http://www.w3.org/Graphics/SVG/1.1/DTD/svg11.dtd">
<svg version="1.1" id="Capa_1" xmlns="http://www.w3.org/2000/svg" xmlns:xlink="http://www.w3.org/1999/xlink" x="0px" y="0px"
	 width="637.414px" height="637.414px" viewBox="0 0 637.414 637.414" style="enable-background:new 0 0 637.414 637.414;"
	 xml:space="preserve">
<g>
	<g>
		<path d="M596.715,0v31.74h-68.407V0h-27.985v58.037H137.079V0h-27.985v31.74H40.686V0H12.701v637.414h27.985v-31.74h68.408v31.74
			h27.985v-58.023h363.256v58.023h27.985v-31.74h68.407v31.74h27.985V0H596.715z M109.094,529.758H40.686v-48.713h68.408V529.758z
			 M109.094,405.379H40.686v-48.713h68.408V405.379z M109.094,280.484H40.686v-48.713h68.408V280.484z M109.094,156.119H40.686
			v-48.713h68.408V156.119z M500.323,514.535H137.079V122.879h363.256v391.656H500.323z M596.715,529.758h-68.407v-48.713h68.407
			V529.758z M596.715,405.379h-68.407v-48.713h68.407V405.379z M596.715,280.484h-68.407v-48.713h68.407V280.484z M596.715,156.119
			h-68.407v-48.713h68.407V156.119z"/>
		<polygon points="240.427,182.529 240.427,454.887 414.262,318.714 		"/>
	</g>
</g>
<g>
</g>
<g>
</g>
<g>
</g>
<g>
</g>
<g>
</g>
<g>
</g>
<g>
</g>
<g>
</g>
<g>
</g>
<g>
</g>
<g>
</g>
<g>
</g>
<g>
</g>
<g>
</g>
<g>
</g>
</svg>
